<?xml version="1.0" encoding="utf-8"?>
<svg version="1.1" xmlns:xlink="http://www.w3.org/1999/xlink" width="35px" height="40px" xmlns="http://www.w3.org/2000/svg">
  <g transform="matrix(1 0 0 1 -100 -1448 )">
    <path d="M 117.5 1487.1298890409064  C 110.7 1477.4645471020963  100.5 1471.6653419388101  100.5 1462  C 100.5 1456.9857142857143  103.9 1448.5  117.5 1448.5  C 131.1 1448.5  134.5 1456.9857142857143  134.5 1462  C 134.5 1471.6653419388101  124.3 1477.4645471020963  117.5 1487.1298890409064  Z " fill-rule="nonzero" fill="#00ffff" stroke="none" />
    <path d="M 117.5 1488  C 110.5 1478  100 1472  100 1462  C 100 1456.8  103.5 1448  117.5 1448  C 131.5 1448  135 1456.8  135 1462  C 135 1472  124.5 1478  117.5 1488  Z M 117.5 1486.2597780818128  C 124.1 1476.9290942041923  134 1471.3306838776202  134 1462  C 134 1457.1714285714286  130.7 1449  117.5 1449  C 104.3 1449  101 1457.1714285714286  101 1462  C 101 1471.3306838776202  110.9 1476.9290942041923  117.5 1486.2597780818128  Z " fill-rule="nonzero" fill="#00ffff" stroke="none" />
  </g>
</svg>