<?xml version="1.0" encoding="utf-8"?>
<svg version="1.1" xmlns:xlink="http://www.w3.org/1999/xlink" width="35px" height="40px" xmlns="http://www.w3.org/2000/svg">
  <g transform="matrix(1 0 0 1 -100 -1970 )">
    <path d="M 117.5 2009.1298890409064  C 110.7 1999.4645471020963  100.5 1993.6653419388101  100.5 1984  C 100.5 1978.9857142857143  103.9 1970.5  117.5 1970.5  C 131.1 1970.5  134.5 1978.9857142857143  134.5 1984  C 134.5 1993.6653419388101  124.3 1999.4645471020963  117.5 2009.1298890409064  Z " fill-rule="nonzero" fill="#ff9400" stroke="none" fill-opacity="0.9372549019607843" />
    <path d="M 117.5 2010  C 110.5 2000  100 1994  100 1984  C 100 1978.8  103.5 1970  117.5 1970  C 131.5 1970  135 1978.8  135 1984  C 135 1994  124.5 2000  117.5 2010  Z M 117.5 2008.2597780818128  C 124.1 1998.9290942041923  134 1993.3306838776202  134 1984  C 134 1979.1714285714286  130.7 1971  117.5 1971  C 104.3 1971  101 1979.1714285714286  101 1984  C 101 1993.3306838776202  110.9 1998.9290942041923  117.5 2008.2597780818128  Z " fill-rule="nonzero" fill="#ff9b10" stroke="none" />
  </g>
</svg>