<?xml version="1.0" encoding="utf-8"?>
<svg version="1.1" xmlns:xlink="http://www.w3.org/1999/xlink" width="35px" height="40px" xmlns="http://www.w3.org/2000/svg">
  <g transform="matrix(1 0 0 1 -100 -2489 )">
    <path d="M 117.5 2528.129889040906  C 110.7 2518.4645471020963  100.5 2512.6653419388103  100.5 2503  C 100.5 2497.9857142857145  103.9 2489.5  117.5 2489.5  C 131.1 2489.5  134.5 2497.9857142857145  134.5 2503  C 134.5 2512.6653419388103  124.3 2518.4645471020963  117.5 2528.129889040906  Z " fill-rule="nonzero" fill="#9933ff" stroke="none" fill-opacity="0.9372549019607843" />
    <path d="M 117.5 2529  C 110.5 2519  100 2513  100 2503  C 100 2497.8  103.5 2489  117.5 2489  C 131.5 2489  135 2497.8  135 2503  C 135 2513  124.5 2519  117.5 2529  Z M 117.5 2527.259778081813  C 124.1 2517.9290942041926  134 2512.3306838776202  134 2503  C 134 2498.1714285714284  130.7 2490  117.5 2490  C 104.3 2490  101 2498.1714285714284  101 2503  C 101 2512.3306838776202  110.9 2517.9290942041926  117.5 2527.259778081813  Z " fill-rule="nonzero" fill="#9f40ff" stroke="none" />
  </g>
</svg>