<?xml version="1.0" encoding="utf-8"?>
<svg version="1.1" xmlns:xlink="http://www.w3.org/1999/xlink" width="35px" height="40px" xmlns="http://www.w3.org/2000/svg">
  <g transform="matrix(1 0 0 1 -101 -3013 )">
    <path d="M 118.5 3052.129889040906  C 111.7 3042.4645471020963  101.5 3036.6653419388103  101.5 3027  C 101.5 3021.9857142857145  104.9 3013.5  118.5 3013.5  C 132.1 3013.5  135.5 3021.9857142857145  135.5 3027  C 135.5 3036.6653419388103  125.3 3042.4645471020963  118.5 3052.129889040906  Z " fill-rule="nonzero" fill="#00ff00" stroke="none" fill-opacity="0.9372549019607843" />
    <path d="M 118.5 3053  C 111.5 3043  101 3037  101 3027  C 101 3021.8  104.5 3013  118.5 3013  C 132.5 3013  136 3021.8  136 3027  C 136 3037  125.5 3043  118.5 3053  Z M 118.5 3051.259778081813  C 125.1 3041.9290942041926  135 3036.3306838776202  135 3027  C 135 3022.1714285714284  131.7 3014  118.5 3014  C 105.3 3014  102 3022.1714285714284  102 3027  C 102 3036.3306838776202  111.9 3041.9290942041926  118.5 3051.259778081813  Z " fill-rule="nonzero" fill="#10ff10" stroke="none" />
  </g>
</svg>