<?xml version="1.0" encoding="utf-8"?>
<svg version="1.1" xmlns:xlink="http://www.w3.org/1999/xlink" width="35px" height="40px" xmlns="http://www.w3.org/2000/svg">
  <g transform="matrix(1 0 0 1 -105 -3539 )">
    <path d="M 122.5 3578.129889040906  C 115.7 3568.4645471020963  105.5 3562.6653419388103  105.5 3553  C 105.5 3547.9857142857145  108.9 3539.5  122.5 3539.5  C 136.1 3539.5  139.5 3547.9857142857145  139.5 3553  C 139.5 3562.6653419388103  129.3 3568.4645471020963  122.5 3578.129889040906  Z " fill-rule="nonzero" fill="#ff0000" stroke="none" fill-opacity="0.9372549019607843" />
    <path d="M 122.5 3579  C 115.5 3569  105 3563  105 3553  C 105 3547.8  108.5 3539  122.5 3539  C 136.5 3539  140 3547.8  140 3553  C 140 3563  129.5 3569  122.5 3579  Z M 122.5 3577.259778081813  C 129.1 3567.9290942041926  139 3562.3306838776202  139 3553  C 139 3548.1714285714284  135.7 3540  122.5 3540  C 109.3 3540  106 3548.1714285714284  106 3553  C 106 3562.3306838776202  115.9 3567.9290942041926  122.5 3577.259778081813  Z " fill-rule="nonzero" fill="#ff1010" stroke="none" />
  </g>
</svg>