<?xml version="1.0" encoding="utf-8"?>
<svg version="1.1" xmlns:xlink="http://www.w3.org/1999/xlink" width="35px" height="40px" xmlns="http://www.w3.org/2000/svg">
  <g transform="matrix(1 0 0 1 -105 -4063 )">
    <path d="M 122.5 4102.129889040906  C 115.7 4092.4645471020963  105.5 4086.6653419388103  105.5 4077  C 105.5 4071.9857142857145  108.9 4063.5  122.5 4063.5  C 136.1 4063.5  139.5 4071.9857142857145  139.5 4077  C 139.5 4086.6653419388103  129.3 4092.4645471020963  122.5 4102.129889040906  Z " fill-rule="nonzero" fill="#ffff00" stroke="none" fill-opacity="0.9372549019607843" />
    <path d="M 122.5 4103  C 115.5 4093  105 4087  105 4077  C 105 4071.8  108.5 4063  122.5 4063  C 136.5 4063  140 4071.8  140 4077  C 140 4087  129.5 4093  122.5 4103  Z M 122.5 4101.259778081812  C 129.1 4091.9290942041926  139 4086.3306838776202  139 4077  C 139 4072.1714285714284  135.7 4064  122.5 4064  C 109.3 4064  106 4072.1714285714284  106 4077  C 106 4086.3306838776202  115.9 4091.9290942041926  122.5 4101.259778081812  Z " fill-rule="nonzero" fill="#ffff10" stroke="none" />
  </g>
</svg>