<?xml version="1.0" encoding="utf-8"?>
<svg version="1.1" xmlns:xlink="http://www.w3.org/1999/xlink" width="35px" height="40px" xmlns="http://www.w3.org/2000/svg">
  <g transform="matrix(1 0 0 1 -105 -4589 )">
    <path d="M 122.5 4628.129889040906  C 115.7 4618.464547102096  105.5 4612.66534193881  105.5 4603  C 105.5 4597.9857142857145  108.9 4589.5  122.5 4589.5  C 136.1 4589.5  139.5 4597.9857142857145  139.5 4603  C 139.5 4612.66534193881  129.3 4618.464547102096  122.5 4628.129889040906  Z " fill-rule="nonzero" fill="#ff00cc" stroke="none" fill-opacity="0.9372549019607843" />
    <path d="M 122.5 4629  C 115.5 4619  105 4613  105 4603  C 105 4597.8  108.5 4589  122.5 4589  C 136.5 4589  140 4597.8  140 4603  C 140 4613  129.5 4619  122.5 4629  Z M 122.5 4627.259778081812  C 129.1 4617.929094204193  139 4612.330683877621  139 4603  C 139 4598.171428571429  135.7 4590  122.5 4590  C 109.3 4590  106 4598.171428571429  106 4603  C 106 4612.330683877621  115.9 4617.929094204193  122.5 4627.259778081812  Z " fill-rule="nonzero" fill="#ff10cf" stroke="none" />
  </g>
</svg>