<?xml version="1.0" encoding="utf-8"?>
<svg version="1.1" xmlns:xlink="http://www.w3.org/1999/xlink" width="35px" height="40px" xmlns="http://www.w3.org/2000/svg">
  <g transform="matrix(1 0 0 1 -105 -5111 )">
    <path d="M 122.5 5150.129889040906  C 115.7 5140.464547102096  105.5 5134.66534193881  105.5 5125  C 105.5 5119.9857142857145  108.9 5111.5  122.5 5111.5  C 136.1 5111.5  139.5 5119.9857142857145  139.5 5125  C 139.5 5134.66534193881  129.3 5140.464547102096  122.5 5150.129889040906  Z " fill-rule="nonzero" fill="#993333" stroke="none" fill-opacity="0.6980392156862745" />
    <path d="M 122.5 5151  C 115.5 5141  105 5135  105 5125  C 105 5119.8  108.5 5111  122.5 5111  C 136.5 5111  140 5119.8  140 5125  C 140 5135  129.5 5141  122.5 5151  Z M 122.5 5149.259778081812  C 129.1 5139.929094204193  139 5134.330683877621  139 5125  C 139 5120.171428571429  135.7 5112  122.5 5112  C 109.3 5112  106 5120.171428571429  106 5125  C 106 5134.330683877621  115.9 5139.929094204193  122.5 5149.259778081812  Z " fill-rule="nonzero" fill="#9f40ff" stroke="none" />
  </g>
</svg>