<?xml version="1.0" encoding="utf-8"?>
<svg version="1.1" xmlns:xlink="http://www.w3.org/1999/xlink" width="35px" height="40px" xmlns="http://www.w3.org/2000/svg">
  <g transform="matrix(1 0 0 1 -105 -5630 )">
    <path d="M 122.5 5669.129889040906  C 115.7 5659.464547102096  105.5 5653.66534193881  105.5 5644  C 105.5 5638.9857142857145  108.9 5630.5  122.5 5630.5  C 136.1 5630.5  139.5 5638.9857142857145  139.5 5644  C 139.5 5653.66534193881  129.3 5659.464547102096  122.5 5669.129889040906  Z " fill-rule="nonzero" fill="#0066ff" stroke="none" fill-opacity="0.9372549019607843" />
    <path d="M 122.5 5670  C 115.5 5660  105 5654  105 5644  C 105 5638.8  108.5 5630  122.5 5630  C 136.5 5630  140 5638.8  140 5644  C 140 5654  129.5 5660  122.5 5670  Z M 122.5 5668.259778081812  C 129.1 5658.929094204193  139 5653.330683877621  139 5644  C 139 5639.171428571429  135.7 5631  122.5 5631  C 109.3 5631  106 5639.171428571429  106 5644  C 106 5653.330683877621  115.9 5658.929094204193  122.5 5668.259778081812  Z " fill-rule="nonzero" fill="#1070ff" stroke="none" />
  </g>
</svg>